<svg xmlns="http://www.w3.org/2000/svg" viewBox="0 0 496.95 278.14"><defs><style>.cls-1{fill:#094422;}.cls-2{fill:#CDD831;}</style></defs><g id="Layer_2" data-name="Layer 2"><g id="Layer_1-2" data-name="Layer 1"><path class="cls-1" d="M280.15,100.48c4.68-9,10-13.38,16-13.38,5.07,0,8.44,3.25,8.44,8.84,0,5.19-2.59,8.44-8.57,10.13-12.34,3.5-20.13,11.3-24.29,26.75l-4.28,15.46c-1.69,6.36-5.85,10-11,10-6.63,0-10.13-4.81-7.93-13l13-48.18c1.69-6.37,5.85-10,11-10,6.5,0,9.74,4.81,8.05,11.82Z"/><path class="cls-1" d="M298.47,126.85c0-20.78,17.92-40.26,40.26-40.26,20.65,0,33.51,13.63,33.51,32.21,0,20.78-17.92,40.26-40.26,40.26C311.33,159.06,298.47,145.42,298.47,126.85Zm54.42-7.53c0-10.14-6.11-15.85-15.07-15.85-12.08,0-20,13-20,22.86,0,10.13,6.1,15.84,15.07,15.84C345,142.17,352.89,129.19,352.89,119.32Z"/><path class="cls-1" d="M393.15,147.37l-.26.91c-1.43,5.45-4.94,10-10.91,10-6.62,0-10.13-4.81-7.92-13l19.48-73.38c1.69-6.37,5.84-10,11-10,6.62,0,10.13,4.8,7.92,13l-5.45,20.52c6-5.59,11.82-8.83,19.61-8.83,15.2,0,26.76,11,26.76,29.87,0,24.68-18.84,42.34-38.45,42.34C404.06,158.8,397.7,154.25,393.15,147.37ZM433,117.76c0-9.09-5.71-14.55-14.54-14.55-10.91,0-21,10.91-21,24.16,0,8.83,6.23,14.8,14.93,14.8C423,142.17,433,131.78,433,117.76Z"/><path class="cls-1" d="M474.84,148.28c-1.68,6.36-5.84,10-11,10-6.62,0-10.13-4.81-7.92-13l13-48.18c1.69-6.37,5.84-10,11-10,6.62,0,10.13,4.81,7.92,13Zm9.1-67.41c-6.24,0-10.53-3.9-9.49-9.09l.13-.65c1.17-5.59,6.5-9.09,12.73-9.09s10.52,3.89,9.48,9.09l-.13.65C495.49,77.36,490.17,80.87,483.94,80.87Z"/><path class="cls-2" d="M193.47,247.74c-1.69,6.37-6,10-11.17,10-6.62,0-10.26-4.81-8.05-13l18.44-68.71c1.69-6.37,6-10,11.17-10h20.39c13,0,21.95,2.6,28.58,9.22,4.67,4.68,7,10.78,7,18.7,0,22.6-19.35,35.46-44.16,35.46H198.41Zm23.25-35.84c13.25,0,22.21-6,22.21-16.24a10.37,10.37,0,0,0-3-7.53c-2.72-2.73-6.49-4-12.47-4h-13l-7.41,27.8Z"/><path class="cls-2" d="M291.79,248.91c-5.59,6-12.6,9.35-20.78,9.35-12.08,0-20.26-7.79-20.26-18.7,0-16.1,13.12-25.07,30-25.07a63.92,63.92,0,0,1,19.61,3.12l.26-.91a19.9,19.9,0,0,0,.78-5.19c0-4.81-3.38-8.19-13.12-8.19a50.37,50.37,0,0,0-12.08,1.56,16.5,16.5,0,0,1-3.24.52,7.68,7.68,0,0,1-7.8-7.92,7.94,7.94,0,0,1,6-7.66,69.67,69.67,0,0,1,21.3-3.25c18.7,0,28.18,7.79,28.18,21.43a41.62,41.62,0,0,1-1.55,10.52l-7.8,29.22c-1.69,6.37-5.84,10-11,10C292.57,257.75,291.53,252.81,291.79,248.91Zm5.2-18.18.51-1.82a37.81,37.81,0,0,0-13-2.47c-8.19,0-14.16,4.16-14.16,10.91,0,4.29,3.51,7.41,9.09,7.41C287.63,244.76,294.78,238.26,297,230.73Z"/><path class="cls-2" d="M329.71,261.51c2.34,0,4.42-1,6.76-4.15l-8.31-56.89a29.64,29.64,0,0,1-.39-4.68c0-5.19,4.41-9.22,9.87-9.22s9.35,3.25,9.61,8.44l4,40.14,24.41-42.35c2.08-3.76,5.46-6.23,10-6.23,5.07,0,8.58,2.86,8.58,7.66,0,1.69-.91,4-2.6,6.76l-36.11,57.66c-9,14.29-16.88,19.49-28.18,19.49-3.38,0-6.76-.26-9.35-1.43-3-1.3-6-3.77-6-8.57s3.77-8.58,7.79-8.58a16.22,16.22,0,0,1,4,.91A20.36,20.36,0,0,0,329.71,261.51Z"/><path class="cls-1" d="M235.61,148.28c-1.69,6.36-5.85,10-11,10-6.63,0-10.13-4.81-7.92-13l13-48.18c1.69-6.37,5.85-10,11-10,6.63,0,10.13,4.81,7.93,13Zm9.09-67.41c-6.24,0-10.52-3.9-9.48-9.09l.13-.65c1.17-5.59,6.49-9.09,12.73-9.09s10.52,3.89,9.48,9.09l-.13.65C256.26,77.36,250.93,80.87,244.7,80.87Z"/><path class="cls-1" d="M185.08,149.45c-5.58,6-12.59,9.35-20.78,9.35C152.22,158.8,144,151,144,140.1,144,124,157.16,115,174,115a64,64,0,0,1,19.62,3.12l.26-.91a19.92,19.92,0,0,0,.78-5.2c0-4.8-3.38-8.18-13.12-8.18a50.3,50.3,0,0,0-12.08,1.56,16.71,16.71,0,0,1-3.25.52A7.69,7.69,0,0,1,158.46,98a8,8,0,0,1,6-7.66,69.72,69.72,0,0,1,21.3-3.25c18.71,0,28.19,7.8,28.19,21.44a41.25,41.25,0,0,1-1.56,10.52l-7.79,29.22c-1.69,6.36-5.85,10-11,10C185.86,158.28,184.82,153.34,185.08,149.45Zm5.2-18.19.52-1.81a37.87,37.87,0,0,0-13-2.47c-8.18,0-14.16,4.15-14.16,10.91,0,4.28,3.51,7.4,9.1,7.4C180.93,145.29,188.07,138.8,190.28,131.26Z"/><path class="cls-1" d="M188.28,81.84c-1-2.68-2.08-5.31-3.3-7.9a96.73,96.73,0,0,0-31.9-37.85C112.25,7.33,55.31,14.6,23,52.71a97.32,97.32,0,0,0,15.2,140.2c7.84,6,19.27,0,21.54-8.48l1.61-6,12.09-44-.1-.21,8.23-30.72,24.29,52.6c2.34,4.94,5.07,7.53,11.43,7.53h.39c6,0,9.22-3.5,10.78-9.35l18.83-69.87c2.21-8.19-1.3-13-7.92-13-5.19,0-9.35,3.63-11,10L115.25,130,92.13,79.6c-2.2-4.94-5.84-7.92-11.69-7.92h-.9c-6,0-10.14,3.63-11.82,10L60.09,110.1a18.62,18.62,0,0,0-.69,2.11L43.24,172.42l-.71-.79A78.25,78.25,0,1,1,168.35,83.15l.5.13S183.23,81.24,188.28,81.84Z"/><polygon class="cls-1" points="76.32 198.63 76.32 198.63 76.32 198.63 76.32 198.63"/><path class="cls-1" d="M158.36,165.39l-1.41.68c-2.33,1.13-4.88,5.34-6.89,7.17A78.57,78.57,0,0,1,123,189.4a79.3,79.3,0,0,1-20.43,4.23c-6.7.48-14.26-1.63-20.77,1.05-6.33,2.61-11.06,14.1-2,16.56a97.19,97.19,0,0,0,102.67-49C173.47,167.59,158.36,165.39,158.36,165.39Z"/><path class="cls-2" d="M49.65,16.63S93-2.26,144,17.63c44.24,17.25,57.61,64.75,57.61,64.75h20s-15-56.5-69-76C152.65,6.38,91.4-13.37,49.65,16.63Z"/></g></g></svg>