<svg xmlns="http://www.w3.org/2000/svg" viewBox="0 0 237.44 102.57"><defs><style>.cls-1{fill:#26604e;}.cls-2{fill:#fd0;}</style></defs><g id="Layer_2" data-name="Layer 2"><g id="Layer_1-2" data-name="Layer 1"><path class="cls-1" d="M86.56,49h-33V31.52h33s7.71,1.31,7.71,8.72S86.56,49,86.56,49Z"/><path class="cls-1" d="M15.86,70.92h33V53.47h-33s-7.71,1.31-7.71,8.72S15.86,70.92,15.86,70.92Z"/><path class="cls-2" d="M53.54,86.49v-33H71v33s-1.31,7.71-8.73,7.71S53.54,86.49,53.54,86.49Z"/><path class="cls-2" d="M31.42,16V49H48.88V16s-1.31-7.71-8.73-7.71S31.42,16,31.42,16Z"/><circle class="cls-2" cx="14.71" cy="34.63" r="14.71"/><circle class="cls-2" cx="87.85" cy="68.18" r="14.71"/><path class="cls-1" d="M68.25,4A10.71,10.71,0,1,1,57.54,14.71,10.72,10.72,0,0,1,68.25,4m0-4A14.71,14.71,0,1,0,83,14.71,14.72,14.72,0,0,0,68.25,0Z"/><path class="cls-1" d="M34.7,77.14A10.72,10.72,0,1,1,24,87.85,10.73,10.73,0,0,1,34.7,77.14m0-4A14.72,14.72,0,1,0,49.41,87.85,14.71,14.71,0,0,0,34.7,73.14Z"/><path class="cls-1" d="M141,63.94,128.9,47.64v16.3h-3.84V41.2h3.77L141,57.54V41.2h3.77V63.94Z"/><path class="cls-1" d="M160.82,61.83c-1.23,1.53-3.21,2.27-5.71,2.27-3.74,0-6.08-2.3-6.08-5.36s2.37-5.16,6.53-5.19h5.23V53c0-2.18-1.4-3.48-4.12-3.48a9.1,9.1,0,0,0-5.1,1.76L150,48.71a12.65,12.65,0,0,1,7.44-2.18c4.45,0,7,2.27,7,6.07l0,11.34h-3.67Zm0-4v-1.6h-4.68c-2.43,0-3.57.65-3.57,2.31s1.27,2.57,3.35,2.57C158.55,61.15,160.6,59.75,160.79,57.87Z"/><path class="cls-1" d="M173.42,41.72a2.18,2.18,0,1,1-2.17-2.27A2.15,2.15,0,0,1,173.42,41.72Zm-4,22.22V46.66h3.7V63.94Z"/><path class="cls-1" d="M182.26,50.1a6.28,6.28,0,0,1,6-3.57V50.1c-3.48-.19-5.69,1.86-6,4.81v9h-3.74V46.66h3.74Z"/><path class="cls-1" d="M207.63,55.3c0,5.2-3.67,8.77-9,8.77s-9-3.57-9-8.77,3.67-8.77,9-8.77S207.63,50.07,207.63,55.3Zm-14.3,0c0,3.35,2.18,5.62,5.3,5.62s5.26-2.27,5.26-5.62-2.18-5.58-5.26-5.58S193.33,52,193.33,55.33Z"/><path class="cls-1" d="M229.61,55.37c0,5.16-3.24,8.7-8.18,8.7A6.79,6.79,0,0,1,215.32,61v3h-3.73V39.84h3.73v9.81a6.77,6.77,0,0,1,6-3.12C226.27,46.53,229.61,50.1,229.61,55.37Zm-3.76-.13a5.25,5.25,0,0,0-5.27-5.59c-3.08,0-5.26,2.34-5.26,5.59s2.18,5.65,5.26,5.65S225.85,58.55,225.85,55.24Z"/><path class="cls-1" d="M237.44,41.72a2.18,2.18,0,1,1-2.17-2.27A2.15,2.15,0,0,1,237.44,41.72Zm-4,22.22V46.66h3.71V63.94Z"/><path class="cls-1" d="M134.12,71.12c5.72,0,9,2.83,9,7.76,0,5.13-3.28,8.12-9,8.12H128.9v6.86h-3.84V71.12ZM128.9,83.56H134c3.51,0,5.49-1.49,5.49-4.58s-2-4.42-5.49-4.42H128.9Z"/><path class="cls-1" d="M146.76,93.86V69.75h3.73V93.86Z"/><path class="cls-1" d="M166.44,91.74c-1.23,1.53-3.21,2.28-5.72,2.28-3.73,0-6.07-2.31-6.07-5.36s2.37-5.17,6.53-5.2h5.23v-.52c0-2.17-1.4-3.47-4.13-3.47a9.14,9.14,0,0,0-5.1,1.75l-1.52-2.6a12.65,12.65,0,0,1,7.44-2.17c4.45,0,7,2.27,7,6.07l0,11.34h-3.67Zm0-4V86.19h-4.68c-2.43,0-3.57.65-3.57,2.31s1.27,2.56,3.34,2.56C164.17,91.06,166.21,89.67,166.41,87.78Z"/><path class="cls-1" d="M191.55,83.1V93.86h-3.74V84.14A3.85,3.85,0,0,0,183.66,80a4.85,4.85,0,0,0-4.91,4.71v9.2H175V76.58h3.73v3.31c1.24-2.4,3.44-3.44,6.37-3.44C189.14,76.45,191.55,79,191.55,83.1Z"/></g></g></svg>